<mxfile host="app.diagrams.net" modified="2023-07-06T22:19:40.249Z" agent="Mozilla/5.0 (Windows NT 10.0; Win64; x64) AppleWebKit/537.36 (KHTML, like Gecko) Chrome/114.0.0.0 Safari/537.36" version="21.5.2" etag="E0OS8viDZGf2lOHwgvjW" type="github">
  <diagram name="페이지-1" id="B76l2u0AhA5cJLtnicNG">
    <mxGraphModel>
      <root>
        <mxCell id="0" />
        <mxCell id="1" parent="0" />
      </root>
    </mxGraphModel>
  </diagram>
</mxfile>
